<svg width="43" height="53" viewBox="0 0 43 53" fill="none" xmlns="http://www.w3.org/2000/svg">
<path d="M14.2861 18.8223H17.8575V41.4091H14.2861V18.8223Z" fill="#457759"/>
<path d="M25 18.8223H28.5714V41.4091H25V18.8223Z" fill="#457759"/>
<path d="M0 7.5293V11.2938H3.57143V48.9385C3.57143 49.9369 3.94771 50.8944 4.61748 51.6004C5.28725 52.3064 6.19566 52.703 7.14286 52.703H35.7143C36.6615 52.703 37.5699 52.3064 38.2397 51.6004C38.9095 50.8944 39.2857 49.9369 39.2857 48.9385V11.2938H42.8572V7.5293H0ZM7.14286 48.9385V11.2938H35.7143V48.9385H7.14286Z" fill="#457759"/>
<path d="M14.2861 0H28.5719V3.76447H14.2861V0Z" fill="#457759"/>
</svg>
