<svg width="32" height="30" viewBox="0 0 32 30" fill="none" xmlns="http://www.w3.org/2000/svg">
<path d="M31.4828 27.6745L21.5369 18.064C23.0803 16.1359 23.9151 13.7786 23.9151 11.2992C23.9151 8.33128 22.7164 5.54839 20.5488 3.45013C18.3811 1.35187 15.4935 0.197266 12.4258 0.197266C9.35819 0.197266 6.47054 1.35557 4.30289 3.45013C2.13141 5.54469 0.936523 8.33128 0.936523 11.2992C0.936523 14.2634 2.13524 17.0537 4.30289 19.1483C6.47054 21.2465 9.35436 22.4011 12.4258 22.4011C14.9918 22.4011 17.4275 21.5944 19.4228 20.1067L29.3687 29.7136C29.3979 29.7418 29.4325 29.7642 29.4706 29.7794C29.5088 29.7947 29.5496 29.8025 29.5909 29.8025C29.6321 29.8025 29.673 29.7947 29.7111 29.7794C29.7492 29.7642 29.7838 29.7418 29.813 29.7136L31.4828 28.1038C31.512 28.0756 31.5351 28.0422 31.5509 28.0053C31.5667 27.9685 31.5748 27.929 31.5748 27.8892C31.5748 27.8493 31.5667 27.8098 31.5509 27.773C31.5351 27.7362 31.512 27.7027 31.4828 27.6745ZM18.4922 17.161C16.8684 18.7264 14.716 19.5886 12.4258 19.5886C10.1356 19.5886 7.9833 18.7264 6.35948 17.161C4.73949 15.5919 3.84715 13.5122 3.84715 11.2992C3.84715 9.08621 4.73949 7.00275 6.35948 5.43737C7.9833 3.872 10.1356 3.00975 12.4258 3.00975C14.716 3.00975 16.8722 3.8683 18.4922 5.43737C20.1122 7.00645 21.0045 9.08621 21.0045 11.2992C21.0045 13.5122 20.1122 15.5956 18.4922 17.161Z" fill="white"/>
</svg>
