<svg width="44" height="38" viewBox="0 0 44 38" fill="none" xmlns="http://www.w3.org/2000/svg">
<path d="M40.7426 0.00389078C40.1992 0.0419021 39.6658 0.164473 39.1633 0.366822H39.1565C38.6741 0.550728 36.3805 1.4784 32.8935 2.88455L20.3981 7.94443C11.4318 11.5737 2.61798 15.1477 2.61798 15.1477L2.72292 15.1087C2.72292 15.1087 2.11524 15.3007 1.48048 15.719C1.08833 15.9589 0.750887 16.2728 0.488564 16.6418C0.177108 17.0812 -0.0734115 17.7533 0.0196868 18.4483C0.17203 19.6233 0.964211 20.328 1.53296 20.717C2.10847 21.1109 2.65691 21.2948 2.65691 21.2948H2.67045L10.9359 23.972C11.3066 25.1161 13.4546 31.906 13.9709 33.4701C14.2756 34.4042 14.5718 34.9885 14.9425 35.4344C15.1219 35.6623 15.3318 35.8527 15.584 36.0057C15.7151 36.079 15.855 36.1369 16.0004 36.1782L15.9158 36.1587C15.9412 36.1652 15.9615 36.1847 15.9801 36.1912C16.0478 36.2091 16.0935 36.2156 16.1799 36.2287C17.4883 36.6095 18.5395 35.8283 18.5395 35.8283L18.5987 35.7827L23.4788 31.5105L31.6579 37.5437L31.8441 37.6202C33.5486 38.3395 35.2752 37.9392 36.1875 37.2328C37.1067 36.5216 37.4638 35.6118 37.4638 35.6118L37.5231 35.4654L43.8436 4.33303C44.023 3.56485 44.0687 2.8455 43.8707 2.1473C43.6664 1.44068 43.1949 0.832948 42.5487 0.443314C42.006 0.12614 41.3768 -0.0269526 40.7426 0.00389078ZM40.5716 3.34025C40.5648 3.44279 40.5852 3.43139 40.5378 3.62832V3.64622L34.2765 34.4547C34.2494 34.4986 34.2037 34.5947 34.0784 34.6907C33.9464 34.7916 33.8415 34.8551 33.2913 34.6451L23.2875 27.2709L17.2446 32.5668L18.5141 24.7711L34.8588 10.1236C35.5325 9.52148 35.3073 9.39453 35.3073 9.39453C35.3547 8.65565 34.29 9.17808 34.29 9.17808L13.6797 21.4543L13.673 21.4217L3.7944 18.2237V18.2172L3.76901 18.2123C3.78633 18.2068 3.80328 18.2002 3.81979 18.1928L3.87396 18.1667L3.92643 18.1488C3.92643 18.1488 12.7471 14.5748 21.7133 10.9455C26.2023 9.12762 30.7252 7.29669 34.2037 5.88403C37.6822 4.4795 40.2534 3.4493 40.399 3.39396C40.5378 3.34188 40.4717 3.34188 40.5716 3.34188V3.34025Z" fill="#457759"/>
</svg>
