<svg width="44" height="46" viewBox="0 0 44 46" fill="none" xmlns="http://www.w3.org/2000/svg">
<path d="M20.8412 0C17.116 0.0536677 9.11268 0.659347 4.64126 4.72851C1.32007 8.02524 0.148574 12.8419 0.026784 18.8163C-0.0950056 24.7887 -0.253525 35.988 10.6341 39.0241H10.6399L10.6321 43.6549C10.6321 43.6549 10.5606 45.5275 11.8114 45.9108C13.3135 46.3747 14.1969 44.9525 15.6391 43.4153C16.4259 42.5719 17.5181 41.3376 18.3397 40.3869C25.7824 41.0117 31.5084 39.5895 32.1619 39.3806C33.662 38.8976 42.1679 37.8166 43.5521 26.6211C44.9826 15.0826 42.8561 7.7799 39.0285 4.49084C37.8763 3.43665 33.2174 0.0824183 22.8382 0.0383341C22.8382 0.0383341 22.0746 -0.00958352 20.8335 0.00575011L20.8412 0ZM20.9533 3.24498C22.0069 3.23731 22.6545 3.27757 22.6545 3.27757C31.435 3.3159 35.6396 5.93795 36.6159 6.8158C39.8539 9.56627 41.5068 16.1463 40.3005 25.7854V25.7893C39.1329 35.1389 32.2314 35.7255 30.9594 36.1299C30.4181 36.3024 25.388 37.5425 19.0646 37.1342C19.0646 37.1342 14.3554 42.7693 12.8843 44.2337C12.6523 44.4637 12.3817 44.5538 12.2038 44.5097C11.9525 44.4465 11.8829 44.1494 11.8848 43.7162L11.9235 36.0149C2.71776 33.4848 3.25324 23.955 3.35957 18.9658C3.46396 13.9747 4.40928 9.88445 7.21817 7.13398C11.0072 3.73566 17.8003 3.26606 20.963 3.24306L20.9533 3.24498ZM21.6879 8.23225C21.5381 8.23974 21.3968 8.3038 21.293 8.41129C21.1892 8.51878 21.1309 8.66156 21.1299 8.81035C21.1289 8.95913 21.1853 9.10266 21.2877 9.2115C21.39 9.32033 21.5304 9.38623 21.6802 9.39569C24.8197 9.41485 27.3753 10.425 29.467 12.4471C31.5413 14.452 32.5988 17.1775 32.6239 20.7541C32.6278 21.0742 32.8945 21.3291 33.2174 21.3291C33.3719 21.3271 33.5194 21.2648 33.6279 21.1557C33.7365 21.0467 33.7973 20.8996 33.7973 20.7464C33.7702 16.9437 32.6026 13.8539 30.2867 11.6152C27.9862 9.39185 25.0826 8.25525 21.6899 8.23225H21.6879ZM14.0326 9.56436C13.6216 9.50793 13.2033 9.58671 12.8418 9.78861L12.8224 9.79245C11.9912 10.2659 11.245 10.8696 10.607 11.5788C10.6032 11.5865 10.5954 11.5865 10.5916 11.5941C10.0754 12.2132 9.77962 12.817 9.7023 13.4112C9.68715 13.4998 9.68261 13.5899 9.68876 13.6795C9.68876 13.9402 9.73129 14.197 9.81442 14.4462L9.83955 14.4654C10.1005 15.3854 10.7539 16.9111 12.169 19.4565C12.9809 20.9285 13.9147 22.3315 14.9644 23.6464C15.4863 24.3057 16.047 24.9363 16.6462 25.5324L16.9014 25.7854C17.5007 26.3758 18.1386 26.9355 18.8037 27.453C20.1309 28.4939 21.5446 29.4217 23.0296 30.2264C25.5968 31.6314 27.1395 32.2773 28.0635 32.538L28.0829 32.5648C28.4192 32.6738 28.7752 32.7098 29.1268 32.6702C29.7261 32.6012 30.3389 32.3061 30.9594 31.7885C30.9672 31.7885 30.9652 31.7847 30.9749 31.779C31.6902 31.1465 32.2952 30.3989 32.7727 29.5786L32.7785 29.5594C33.2135 28.7314 33.0685 27.9456 32.4306 27.4127C32.4228 27.4127 31.0812 26.301 30.4259 25.8218C29.7299 25.3331 29.0147 24.8788 28.2742 24.461C27.2883 23.9147 26.2792 24.2578 25.8617 24.7945L24.9975 25.8755C24.5529 26.4179 23.7274 26.347 23.7274 26.347C17.6959 24.8213 16.0818 18.7665 16.0818 18.7665C16.0818 18.7665 16.0102 17.9499 16.5612 17.5091L17.6496 16.6504C18.185 16.2383 18.5311 15.2378 17.9782 14.2584C17.5583 13.5229 17.1002 12.8096 16.6056 12.1212C16.0865 11.4477 15.5515 10.7862 15.0011 10.1375C14.7587 9.83646 14.4135 9.63395 14.0307 9.56819L14.0326 9.56436ZM22.7125 11.2511C22.5572 11.2465 22.4064 11.3033 22.2932 11.409C22.1801 11.5146 22.114 11.6605 22.1094 11.8146C22.1048 11.9686 22.162 12.1181 22.2686 12.2303C22.3752 12.3424 22.5224 12.408 22.6777 12.4126C24.9202 12.5755 26.5769 13.3058 27.791 14.6168C29.0089 15.9355 29.5888 17.5378 29.5424 19.5427C29.5508 19.6901 29.615 19.8289 29.7222 19.9315C29.8293 20.034 29.9715 20.0927 30.1204 20.0959C30.2693 20.099 30.4139 20.0464 30.5253 19.9485C30.6368 19.8505 30.7069 19.7146 30.7216 19.5676C30.77 17.3155 30.076 15.3643 28.659 13.829C27.2284 12.2765 25.2237 11.4274 22.7628 11.2491H22.7164L22.7125 11.2511ZM23.6076 14.3753C23.4587 14.3774 23.3162 14.4354 23.2086 14.5374C23.1011 14.6394 23.0364 14.778 23.0276 14.9254C23.0122 15.2455 23.2596 15.5196 23.5844 15.5387C24.5954 15.5924 25.2759 15.8741 25.736 16.3476C26.2 16.8172 26.4861 17.5359 26.5402 18.5786C26.5601 18.7231 26.6339 18.855 26.7471 18.9481C26.8603 19.0413 27.0047 19.089 27.1516 19.0817C27.2985 19.0745 27.4374 19.0129 27.5407 18.9091C27.644 18.8053 27.7044 18.6669 27.7098 18.5211C27.6518 17.2868 27.2941 16.2632 26.5885 15.5368C25.8791 14.8123 24.8622 14.4366 23.6501 14.3734H23.6153L23.6076 14.3753Z" fill="#457759"/>
</svg>
