<svg width="50" height="50" viewBox="0 0 50 50" fill="none" xmlns="http://www.w3.org/2000/svg">
<circle cx="25" cy="25" r="23.5" stroke="#457759" stroke-width="3"/>
<path d="M26.675 39.6892H27.175V39.1892V20.3923V19.8923H26.675H23.2503H22.7503V20.3923V39.1892V39.6892H23.2503H26.675ZM23.1122 11.0026L23.1122 11.0025L23.106 11.0092C22.6811 11.467 22.4727 12.0312 22.4727 12.6696C22.4727 13.3081 22.6813 13.87 23.1116 14.3186L23.1115 14.3187L23.118 14.3251C23.5871 14.7969 24.2401 14.9937 24.9904 14.9937C25.7407 14.9937 26.3937 14.7969 26.8629 14.3251C27.308 13.8776 27.5267 13.3136 27.5267 12.6696C27.5267 12.0257 27.3083 11.4594 26.8686 11.0026C26.4003 10.516 25.7452 10.3108 24.9904 10.3108C24.2357 10.3108 23.5806 10.516 23.1122 11.0026Z" fill="#457759" stroke="#457759"/>
</svg>
